<svg width="23" height="23" viewBox="0 0 23 23" fill="none" xmlns="http://www.w3.org/2000/svg">
<g id="email 1" clip-path="url(#clip0_65_74)">
<g id="Group">
<g id="Group_2">
<path id="Vector" d="M20.8887 3.44165H2.75586C1.69101 3.44165 0.822266 4.30945 0.822266 5.37524V18.2659C0.822266 19.3281 1.68714 20.1995 2.75586 20.1995H20.8887C21.9509 20.1995 22.8223 19.3346 22.8223 18.2659V5.37524C22.8223 4.31306 21.9574 3.44165 20.8887 3.44165ZM20.6217 4.73071L11.8633 13.4892L3.0291 4.73071H20.6217ZM2.11133 17.9989V5.63602L8.31941 11.7909L2.11133 17.9989ZM3.02282 18.9104L9.23482 12.6984L11.4115 14.8564C11.6635 15.1062 12.0701 15.1054 12.321 14.8544L14.4434 12.7321L20.6217 18.9104H3.02282ZM21.5332 17.9989L15.3549 11.8206L21.5332 5.64217V17.9989Z" fill="#394858"/>
</g>
</g>
</g>
<defs>
<clipPath id="clip0_65_74">
<rect width="22" height="22" fill="white" transform="translate(0.822266 0.820557)"/>
</clipPath>
</defs>
</svg>
