<svg width="23" height="23" viewBox="0 0 23 23" fill="none" xmlns="http://www.w3.org/2000/svg">
<g id="phone-call 1" clip-path="url(#clip0_65_61)">
<g id="Group">
<g id="Group_2">
<path id="Vector" d="M18.2092 14.4488C17.7588 13.9798 17.2156 13.7291 16.6398 13.7291C16.0687 13.7291 15.5208 13.9752 15.0518 14.4441L13.5845 15.9068C13.4638 15.8417 13.3431 15.7814 13.227 15.721C13.0599 15.6374 12.902 15.5585 12.7673 15.4749C11.3929 14.602 10.1439 13.4644 8.94594 11.9925C8.36553 11.2589 7.9755 10.6413 7.69226 10.0145C8.073 9.66622 8.42589 9.30405 8.76949 8.9558C8.8995 8.82579 9.02951 8.69114 9.15953 8.56113C10.1346 7.58604 10.1346 6.32308 9.15953 5.348L7.89192 4.08039C7.74798 3.93645 7.59939 3.78787 7.4601 3.63928C7.1815 3.3514 6.88898 3.05423 6.58716 2.77564C6.13677 2.32988 5.59815 2.09308 5.03168 2.09308C4.4652 2.09308 3.9173 2.32988 3.45297 2.77564C3.44833 2.78028 3.44833 2.78028 3.44368 2.78492L1.86498 4.37756C1.27064 4.97189 0.931686 5.69624 0.857394 6.53667C0.745956 7.8925 1.14528 9.15546 1.45173 9.98196C2.20394 12.0111 3.3276 13.8916 5.00382 15.9068C7.03756 18.3352 9.48455 20.2528 12.2798 21.604C13.3477 22.1101 14.7732 22.7091 16.3659 22.8113C16.4634 22.8159 16.5655 22.8206 16.6584 22.8206C17.731 22.8206 18.6318 22.4352 19.3375 21.669C19.3422 21.6597 19.3515 21.6551 19.3561 21.6458C19.5976 21.3533 19.8761 21.0886 20.1687 20.8054C20.3683 20.615 20.5726 20.4153 20.7723 20.2064C21.232 19.7281 21.4734 19.171 21.4734 18.5998C21.4734 18.0241 21.2273 17.4715 20.7584 17.0072L18.2092 14.4488ZM19.8715 19.3381C19.8669 19.3381 19.8669 19.3428 19.8715 19.3381C19.6904 19.5331 19.5047 19.7096 19.305 19.9046C19.0032 20.1925 18.6968 20.4943 18.4089 20.8332C17.9399 21.3347 17.3874 21.5715 16.663 21.5715C16.5934 21.5715 16.5191 21.5715 16.4494 21.5669C15.0704 21.4787 13.7888 20.94 12.8277 20.4804C10.1996 19.2081 7.89192 17.4019 5.97426 15.1128C4.39091 13.2044 3.33225 11.4399 2.63112 9.5455C2.19929 8.38933 2.04142 7.48854 2.11107 6.63882C2.1575 6.09556 2.36645 5.64517 2.75184 5.25978L4.33519 3.67643C4.56271 3.46284 4.80416 3.34676 5.04096 3.34676C5.33349 3.34676 5.57029 3.5232 5.71888 3.67178C5.72352 3.67643 5.72816 3.68107 5.73281 3.68571C6.01605 3.95038 6.28535 4.22433 6.56859 4.51686C6.71253 4.66544 6.86112 4.81402 7.0097 4.96725L8.27731 6.23486C8.76949 6.72704 8.76949 7.18208 8.27731 7.67427C8.14265 7.80892 8.01264 7.94357 7.87799 8.07359C7.48796 8.4729 7.1165 8.84437 6.71253 9.20654C6.70325 9.21583 6.69396 9.22047 6.68932 9.22976C6.29 9.62907 6.36429 10.0191 6.44787 10.2838C6.45251 10.2977 6.45715 10.3116 6.4618 10.3256C6.79147 11.1242 7.25579 11.8764 7.96157 12.7726L7.96621 12.7772C9.24775 14.3559 10.5989 15.5864 12.0894 16.5289C12.2798 16.6497 12.4748 16.7472 12.6605 16.84C12.8277 16.9236 12.9856 17.0026 13.1202 17.0861C13.1388 17.0954 13.1574 17.1094 13.1759 17.1186C13.3338 17.1976 13.4824 17.2347 13.6356 17.2347C14.021 17.2347 14.2625 16.9933 14.3414 16.9143L15.9294 15.3263C16.0873 15.1685 16.338 14.9781 16.6305 14.9781C16.9184 14.9781 17.1552 15.1592 17.2991 15.3171C17.3038 15.3217 17.3038 15.3217 17.3084 15.3263L19.8669 17.8848C20.3451 18.3584 20.3451 18.8459 19.8715 19.3381Z" fill="#232833"/>
<path id="Vector_2" d="M12.7116 6.05378C13.9282 6.25808 15.0333 6.83384 15.9155 7.71606C16.7977 8.59828 17.3688 9.70337 17.5778 10.9199C17.6288 11.2264 17.8935 11.4399 18.1953 11.4399C18.2325 11.4399 18.265 11.4353 18.3021 11.4307C18.6457 11.3749 18.8732 11.0499 18.8175 10.7063C18.5668 9.2344 17.8703 7.8925 16.807 6.8292C15.7437 5.7659 14.4018 5.06941 12.9299 4.81867C12.5863 4.76295 12.2659 4.99047 12.2055 5.32943C12.1451 5.66839 12.368 5.99806 12.7116 6.05378Z" fill="#232833"/>
<path id="Vector_3" d="M22.7967 10.5252C22.3835 8.10145 21.2412 5.89591 19.4861 4.14076C17.7309 2.38561 15.5254 1.24337 13.1016 0.830121C12.7626 0.769759 12.4423 1.00192 12.3819 1.34088C12.3262 1.68448 12.5537 2.00486 12.8973 2.06523C15.061 2.43204 17.0344 3.4582 18.6038 5.02298C20.1733 6.59239 21.1948 8.56578 21.5616 10.7295C21.6127 11.036 21.8773 11.2496 22.1792 11.2496C22.2163 11.2496 22.2488 11.2449 22.2859 11.2403C22.6249 11.1892 22.8571 10.8642 22.7967 10.5252Z" fill="#232833"/>
</g>
</g>
</g>
<defs>
<clipPath id="clip0_65_61">
<rect width="22" height="22" fill="white" transform="translate(0.822266 0.820557)"/>
</clipPath>
</defs>
</svg>
