<svg width="23" height="23" viewBox="0 0 23 23" fill="none" xmlns="http://www.w3.org/2000/svg">
<g id="pin 1" clip-path="url(#clip0_65_83)">
<g id="Group">
<g id="Group_2">
<g id="Group_3">
<path id="Vector" d="M11.8223 0.820557C7.34104 0.820557 3.69541 4.46619 3.69541 8.94746C3.69541 10.4227 4.35704 12.0094 4.38476 12.0763C4.59845 12.5835 5.0201 13.3714 5.32414 13.8332L10.8963 22.2761C11.1244 22.6222 11.4619 22.8206 11.8223 22.8206C12.1828 22.8206 12.5203 22.6222 12.7483 22.2765L18.321 13.8332C18.6255 13.3714 19.0466 12.5835 19.2603 12.0763C19.2881 12.0099 19.9492 10.4232 19.9492 8.94746C19.9492 4.46619 16.3036 0.820557 11.8223 0.820557ZM18.3788 11.7053C18.1881 12.16 17.7956 12.8928 17.5226 13.3068L11.95 21.7502C11.84 21.917 11.8051 21.917 11.6951 21.7502L6.12249 13.3068C5.84952 12.8928 5.45704 12.1595 5.26629 11.7049C5.25817 11.6853 4.65152 10.2248 4.65152 8.94746C4.65152 4.99348 7.86834 1.77666 11.8223 1.77666C15.7763 1.77666 18.9931 4.99348 18.9931 8.94746C18.9931 10.2267 18.385 11.691 18.3788 11.7053Z" fill="#394858"/>
<path id="Vector_2" d="M11.8223 4.64548C9.44973 4.64548 7.51983 6.57586 7.51983 8.94796C7.51983 11.3201 9.44973 13.2505 11.8223 13.2505C14.1949 13.2505 16.1248 11.3201 16.1248 8.94796C16.1248 6.57586 14.1949 4.64548 11.8223 4.64548ZM11.8223 12.2943C9.9775 12.2943 8.47594 10.7933 8.47594 8.94796C8.47594 7.10267 9.9775 5.60159 11.8223 5.60159C13.6671 5.60159 15.1687 7.10267 15.1687 8.94796C15.1687 10.7933 13.6671 12.2943 11.8223 12.2943Z" fill="#394858"/>
</g>
</g>
</g>
</g>
<defs>
<clipPath id="clip0_65_83">
<rect width="22" height="22" fill="white" transform="translate(0.822266 0.820557)"/>
</clipPath>
</defs>
</svg>
