<svg width="255" height="273" viewBox="0 0 255 273" fill="none" xmlns="http://www.w3.org/2000/svg">
<path d="M247.718 203.806C220.088 218.667 188.547 224.645 157.395 220.924C126.243 217.203 96.997 203.965 73.6441 183.014C50.2912 162.064 33.9683 134.421 26.9008 103.854C19.8333 73.2869 22.3653 41.2841 34.1516 12.209L35.5756 12.7862C23.908 41.5684 21.4015 73.2488 28.3978 103.508C35.3941 133.766 51.5526 161.131 74.6702 181.871C97.7878 202.61 126.739 215.715 157.577 219.398C188.415 223.081 219.639 217.164 246.991 202.452L247.718 203.806Z" fill="#040415" fill-opacity="0.15"/>
<path d="M265.035 193.864L248.338 200.943C242.118 203.58 239.043 210.617 241.332 216.973L247.479 234.036L240.4 217.338C237.763 211.119 230.726 208.043 224.37 210.333L207.307 216.48L224.005 209.401C230.225 206.764 233.3 199.726 231.01 193.371L224.864 176.308L231.943 193.005C234.58 199.225 241.617 202.301 247.973 200.011L265.035 193.864Z" fill="#040415" fill-opacity="0.15"/>
<path d="M274.461 272.209L273.645 254.091C273.341 247.342 267.817 242.007 261.062 241.938L242.927 241.752L261.044 240.937C267.793 240.633 273.129 235.109 273.198 228.353L273.383 210.218L274.199 228.336C274.503 235.085 280.027 240.42 286.782 240.489L304.917 240.675L286.799 241.49C280.051 241.794 274.715 247.318 274.646 254.074L274.461 272.209Z" fill="#D6D4D3" fill-opacity="0.32"/>
<path d="M65.0683 11.8069L47.1078 14.3246C40.4175 15.2624 35.6258 21.2643 36.193 27.9962L37.7157 46.0683L35.1981 28.1077C34.2603 21.4174 28.2583 16.6258 21.5265 17.193L3.45441 18.7157L21.4149 16.1981C28.1052 15.2603 32.8969 9.25833 32.3297 2.52648L30.807 -15.5456L33.3246 2.41492C34.2624 9.10521 40.2643 13.8968 46.9962 13.3296L65.0683 11.8069Z" fill="#D3D2D2" fill-opacity="0.32"/>
</svg>
