<svg width="203" height="117" viewBox="0 0 203 117" fill="none" xmlns="http://www.w3.org/2000/svg">
<rect width="203" height="117" rx="8" fill="#D9D9D9"/>
<rect x="101" y="22" width="84" height="11" fill="#D9D9D9"/>
<rect x="92" y="28" width="84" height="6" fill="#565656"/>
<rect x="92" y="52" width="84" height="6" fill="#565656"/>
<rect x="92" y="77" width="84" height="6" fill="#565656"/>
<path d="M69.1353 44.1791C69.1353 56.3983 59.0616 66.3582 46.5677 66.3582C34.0737 66.3582 24 56.3983 24 44.1791C24 31.9599 34.0737 22 46.5677 22C59.0616 22 69.1353 31.9599 69.1353 44.1791Z" fill="#D9D9D9" stroke="#565656" stroke-width="4"/>
<path d="M57.1245 44.7164C57.1245 50.1104 52.6726 54.5373 47.1136 54.5373C41.5546 54.5373 37.1028 50.1104 37.1028 44.7164C37.1028 39.3224 41.5546 34.8955 47.1136 34.8955C52.6726 34.8955 57.1245 39.3224 57.1245 44.7164Z" fill="#D9D9D9" stroke="#565656" stroke-width="4"/>
<path d="M35.1028 61.9105V89.6001C35.1028 90.4889 36.1757 90.936 36.8069 90.3101L47.0036 80.1987C47.4081 79.7976 48.0654 79.8149 48.4482 80.2367L57.384 90.0823C57.9985 90.7594 59.1245 90.3247 59.1245 89.4102V61.9105" stroke="#565656" stroke-width="4"/>
<path d="M35.1028 61.9105V89.6001C35.1028 90.4889 36.1757 90.936 36.8069 90.3101L47.0036 80.1987C47.4081 79.7976 48.0654 79.8149 48.4482 80.2367L57.384 90.0823C57.9985 90.7594 59.1245 90.3247 59.1245 89.4102V61.9105" stroke="black" stroke-opacity="0.2" stroke-width="4"/>
</svg>
