<svg width="203" height="117" viewBox="0 0 203 117" fill="none" xmlns="http://www.w3.org/2000/svg">
<rect width="203" height="117" rx="8" fill="#D9D9D9"/>
<path d="M26 68C26 59.1634 33.1634 52 42 52H52C60.8366 52 68 59.1634 68 68V83H26V68Z" fill="#565656"/>
<path d="M58.5 38.5C58.5 43.9622 53.4161 48.5 47 48.5C40.5839 48.5 35.5 43.9622 35.5 38.5C35.5 33.0378 40.5839 28.5 47 28.5C53.4161 28.5 58.5 33.0378 58.5 38.5Z" fill="#565656" stroke="#565656"/>
<rect x="101" y="22" width="84" height="11" fill="#D9D9D9"/>
<path d="M26 68C26 59.1634 33.1634 52 42 52H52C60.8366 52 68 59.1634 68 68V83H26V68Z" fill="#565656"/>
<rect x="92" y="43" width="84" height="6" fill="#565656"/>
<rect x="92" y="28" width="84" height="6" fill="#565656"/>
<rect x="92" y="59" width="84" height="6" fill="#565656"/>
<rect x="92" y="77" width="84" height="6" fill="#565656"/>
</svg>
